<svg width="42" height="42" viewBox="0 0 42 42" fill="none" xmlns="http://www.w3.org/2000/svg">
<path d="M10.2375 29.925C11.725 28.7875 13.3875 27.8906 15.225 27.2344C17.0625 26.5781 18.9875 26.25 21 26.25C23.0125 26.25 24.9375 26.5781 26.775 27.2344C28.6125 27.8906 30.275 28.7875 31.7625 29.925C32.7833 28.7292 33.5781 27.3729 34.1469 25.8563C34.7156 24.3396 35 22.7208 35 21C35 17.1208 33.6365 13.8177 30.9094 11.0906C28.1823 8.36354 24.8792 7 21 7C17.1208 7 13.8177 8.36354 11.0906 11.0906C8.36354 13.8177 7 17.1208 7 21C7 22.7208 7.28437 24.3396 7.85313 25.8563C8.42188 27.3729 9.21667 28.7292 10.2375 29.925ZM21 22.75C19.2792 22.75 17.8281 22.1594 16.6469 20.9781C15.4656 19.7969 14.875 18.3458 14.875 16.625C14.875 14.9042 15.4656 13.4531 16.6469 12.2719C17.8281 11.0906 19.2792 10.5 21 10.5C22.7208 10.5 24.1719 11.0906 25.3531 12.2719C26.5344 13.4531 27.125 14.9042 27.125 16.625C27.125 18.3458 26.5344 19.7969 25.3531 20.9781C24.1719 22.1594 22.7208 22.75 21 22.75ZM21 38.5C18.5792 38.5 16.3042 38.0406 14.175 37.1219C12.0458 36.2031 10.1937 34.9563 8.61875 33.3813C7.04375 31.8063 5.79688 29.9542 4.87813 27.825C3.95937 25.6958 3.5 23.4208 3.5 21C3.5 18.5792 3.95937 16.3042 4.87813 14.175C5.79688 12.0458 7.04375 10.1937 8.61875 8.61875C10.1937 7.04375 12.0458 5.79688 14.175 4.87813C16.3042 3.95937 18.5792 3.5 21 3.5C23.4208 3.5 25.6958 3.95937 27.825 4.87813C29.9542 5.79688 31.8063 7.04375 33.3813 8.61875C34.9563 10.1937 36.2031 12.0458 37.1219 14.175C38.0406 16.3042 38.5 18.5792 38.5 21C38.5 23.4208 38.0406 25.6958 37.1219 27.825C36.2031 29.9542 34.9563 31.8063 33.3813 33.3813C31.8063 34.9563 29.9542 36.2031 27.825 37.1219C25.6958 38.0406 23.4208 38.5 21 38.5Z" fill="#248DBC"/>
</svg>
