<svg width="20" height="20" viewBox="0 0 20 20" fill="none" xmlns="http://www.w3.org/2000/svg">
<path fill-rule="evenodd" clip-rule="evenodd" d="M10.7428 4.35664C10.5067 4.60938 10.5075 5.01828 10.7447 5.26994L14.594 9.35411H3.94004L3.8578 9.36C3.56198 9.40276 3.33398 9.67296 3.33398 9.99991C3.33398 10.3566 3.60532 10.6457 3.94004 10.6457H14.5928L10.7446 14.7298L10.6858 14.8021C10.5093 15.0545 10.5282 15.4133 10.7429 15.6431C10.9791 15.8958 11.3628 15.8966 11.6 15.645L16.4746 10.4721C16.588 10.3593 16.6607 10.2006 16.6668 10.0238C16.6729 9.85006 16.6135 9.67418 16.4887 9.54177L11.5999 4.35467L11.5318 4.2923C11.2942 4.10526 10.9575 4.12687 10.7428 4.35664Z" fill="white"/>
</svg>
