<svg width="93" height="93" viewBox="0 0 93 93" fill="none" xmlns="http://www.w3.org/2000/svg">
<path d="M0 16.1458C0 11.8637 1.70107 7.75694 4.729 4.729C7.75694 1.70107 11.8637 0 16.1458 0H30.3542C31.2106 0 32.0319 0.340215 32.6375 0.945801C33.2431 1.55139 33.5833 2.37274 33.5833 3.22917C33.5833 4.08559 33.2431 4.90695 32.6375 5.51253C32.0319 6.11812 31.2106 6.45833 30.3542 6.45833H16.1458C13.5765 6.45833 11.1125 7.47898 9.29574 9.29574C7.47898 11.1125 6.45833 13.5765 6.45833 16.1458V30.3542C6.45833 31.2106 6.11812 32.0319 5.51253 32.6375C4.90695 33.2431 4.08559 33.5833 3.22917 33.5833C2.37274 33.5833 1.55139 33.2431 0.945801 32.6375C0.340215 32.0319 0 31.2106 0 30.3542V16.1458ZM59.4167 3.22917C59.4167 1.44667 60.8633 0 62.6458 0H76.8542C81.1363 0 85.2431 1.70107 88.271 4.729C91.2989 7.75694 93 11.8637 93 16.1458V30.3542C93 31.2106 92.6598 32.0319 92.0542 32.6375C91.4486 33.2431 90.6273 33.5833 89.7708 33.5833C88.9144 33.5833 88.093 33.2431 87.4875 32.6375C86.8819 32.0319 86.5417 31.2106 86.5417 30.3542V16.1458C86.5417 13.5765 85.521 11.1125 83.7043 9.29574C81.8875 7.47898 79.4234 6.45833 76.8542 6.45833H62.6458C60.8633 6.45833 59.4167 5.01167 59.4167 3.22917ZM3.22917 59.4167C5.01167 59.4167 6.45833 60.8633 6.45833 62.6458V76.8542C6.45833 79.4234 7.47898 81.8875 9.29574 83.7043C11.1125 85.521 13.5765 86.5417 16.1458 86.5417H30.3542C31.2106 86.5417 32.0319 86.8819 32.6375 87.4875C33.2431 88.093 33.5833 88.9144 33.5833 89.7708C33.5833 90.6273 33.2431 91.4486 32.6375 92.0542C32.0319 92.6598 31.2106 93 30.3542 93H16.1458C11.8637 93 7.75694 91.2989 4.729 88.271C1.70107 85.2431 0 81.1363 0 76.8542V62.6458C0 60.8633 1.44667 59.4167 3.22917 59.4167ZM89.7708 59.4167C91.5533 59.4167 93 60.8633 93 62.6458V76.8542C93 81.1363 91.2989 85.2431 88.271 88.271C85.2431 91.2989 81.1363 93 76.8542 93H62.6458C61.7894 93 60.9681 92.6598 60.3625 92.0542C59.7569 91.4486 59.4167 90.6273 59.4167 89.7708C59.4167 88.9144 59.7569 88.093 60.3625 87.4875C60.9681 86.8819 61.7894 86.5417 62.6458 86.5417H76.8542C79.4234 86.5417 81.8875 85.521 83.7043 83.7043C85.521 81.8875 86.5417 79.4234 86.5417 76.8542V62.6458C86.5417 60.8633 87.9883 59.4167 89.7708 59.4167ZM54.25 47.7917C54.25 45.7362 53.4335 43.765 51.9801 42.3116C50.5267 40.8582 48.5554 40.0417 46.5 40.0417C44.4446 40.0417 42.4733 40.8582 41.0199 42.3116C39.5665 43.765 38.75 45.7362 38.75 47.7917C38.75 49.8471 39.5665 51.8183 41.0199 53.2717C42.4733 54.7252 44.4446 55.5417 46.5 55.5417C48.5554 55.5417 50.5267 54.7252 51.9801 53.2717C53.4335 51.8183 54.25 49.8471 54.25 47.7917ZM56.4846 24.8336C55.9714 23.9604 55.2391 23.2365 54.36 22.7335C53.4809 22.2306 52.4857 21.966 51.4729 21.9661H41.6485C40.6549 21.9663 39.6781 22.2213 38.8111 22.7066C37.9441 23.1918 37.216 23.8912 36.6962 24.738L34.4358 28.4167H29.0625C26.8358 28.4167 24.7003 29.3012 23.1257 30.8757C21.5512 32.4503 20.6667 34.5858 20.6667 36.8125V61.3542C20.6667 63.5809 21.5512 65.7164 23.1257 67.2909C24.7003 68.8654 26.8358 69.75 29.0625 69.75H63.9375C66.1642 69.75 68.2997 68.8654 69.8742 67.2909C71.4488 65.7164 72.3333 63.5809 72.3333 61.3542V36.8125C72.3333 34.5858 71.4488 32.4503 69.8742 30.8757C68.2997 29.3012 66.1642 28.4167 63.9375 28.4167H58.59L56.4846 24.8336ZM34.875 47.7917C34.875 44.7085 36.0998 41.7517 38.2799 39.5715C40.46 37.3914 43.4169 36.1667 46.5 36.1667C49.5831 36.1667 52.54 37.3914 54.7201 39.5715C56.9002 41.7517 58.125 44.7085 58.125 47.7917C58.125 50.8748 56.9002 53.8317 54.7201 56.0118C52.54 58.1919 49.5831 59.4167 46.5 59.4167C43.4169 59.4167 40.46 58.1919 38.2799 56.0118C36.0998 53.8317 34.875 50.8748 34.875 47.7917Z" fill="#5DBBFF"/>
</svg>
