<svg width="37" height="37" viewBox="0 0 37 37" fill="none" xmlns="http://www.w3.org/2000/svg">
<g clip-path="url(#clip0_1167_3342)">
<path d="M35.4587 29.2917C35.4587 30.1094 35.1338 30.8937 34.5556 31.4719C33.9773 32.0501 33.1931 32.375 32.3753 32.375H4.62533C3.80757 32.375 3.02332 32.0501 2.44508 31.4719C1.86684 30.8937 1.54199 30.1094 1.54199 29.2917V12.3333C1.54199 11.5156 1.86684 10.7313 2.44508 10.1531C3.02332 9.57485 3.80757 9.25 4.62533 9.25H10.792L13.8753 4.625H23.1253L26.2087 9.25H32.3753C33.1931 9.25 33.9773 9.57485 34.5556 10.1531C35.1338 10.7313 35.4587 11.5156 35.4587 12.3333V29.2917Z" stroke="#1C6E93" stroke-width="4" stroke-linecap="round" stroke-linejoin="round"/>
<path d="M18.5003 26.2083C21.9061 26.2083 24.667 23.4474 24.667 20.0417C24.667 16.6359 21.9061 13.875 18.5003 13.875C15.0946 13.875 12.3337 16.6359 12.3337 20.0417C12.3337 23.4474 15.0946 26.2083 18.5003 26.2083Z" stroke="#1C6E93" stroke-width="4" stroke-linecap="round" stroke-linejoin="round"/>
</g>
<defs>
<clipPath id="clip0_1167_3342">
<rect width="37" height="37" fill="white"/>
</clipPath>
</defs>
</svg>
