<svg width="37" height="32" viewBox="0 0 37 32" fill="none" xmlns="http://www.w3.org/2000/svg">
<path d="M35.4587 26.6667C35.4587 27.4844 35.1338 28.2687 34.5556 28.8469C33.9773 29.4251 33.1931 29.75 32.3753 29.75H4.62533C3.80757 29.75 3.02332 29.4251 2.44508 28.8469C1.86684 28.2687 1.54199 27.4844 1.54199 26.6667V9.70833C1.54199 8.89058 1.86684 8.10632 2.44508 7.52809C3.02332 6.94985 3.80757 6.625 4.62533 6.625H10.792L13.8753 2H23.1253L26.2087 6.625H32.3753C33.1931 6.625 33.9773 6.94985 34.5556 7.52809C35.1338 8.10632 35.4587 8.89058 35.4587 9.70833V26.6667Z" stroke="#1C6E93" stroke-width="4" stroke-linecap="round" stroke-linejoin="round"/>
<path d="M18.5003 23.5833C21.9061 23.5833 24.667 20.8224 24.667 17.4167C24.667 14.0109 21.9061 11.25 18.5003 11.25C15.0946 11.25 12.3337 14.0109 12.3337 17.4167C12.3337 20.8224 15.0946 23.5833 18.5003 23.5833Z" stroke="#1C6E93" stroke-width="4" stroke-linecap="round" stroke-linejoin="round"/>
</svg>
