<svg width="39" height="39" viewBox="0 0 39 39" fill="none" xmlns="http://www.w3.org/2000/svg">
<path d="M19.5 27.625C20.362 27.625 21.1886 27.2826 21.7981 26.6731C22.4076 26.0636 22.75 25.237 22.75 24.375C22.75 23.513 22.4076 22.6864 21.7981 22.0769C21.1886 21.4674 20.362 21.125 19.5 21.125C18.638 21.125 17.8114 21.4674 17.2019 22.0769C16.5924 22.6864 16.25 23.513 16.25 24.375C16.25 25.237 16.5924 26.0636 17.2019 26.6731C17.8114 27.2826 18.638 27.625 19.5 27.625ZM29.25 13C30.112 13 30.9386 13.3424 31.5481 13.9519C32.1576 14.5614 32.5 15.388 32.5 16.25V32.5C32.5 33.362 32.1576 34.1886 31.5481 34.7981C30.9386 35.4076 30.112 35.75 29.25 35.75H9.75C8.88805 35.75 8.0614 35.4076 7.4519 34.7981C6.84241 34.1886 6.5 33.362 6.5 32.5V16.25C6.5 15.388 6.84241 14.5614 7.4519 13.9519C8.0614 13.3424 8.88805 13 9.75 13H11.375V9.75C11.375 7.59512 12.231 5.52849 13.7548 4.00476C15.2785 2.48102 17.3451 1.625 19.5 1.625C20.567 1.625 21.6235 1.83516 22.6093 2.24348C23.5951 2.6518 24.4908 3.25028 25.2452 4.00476C25.9997 4.75923 26.5982 5.65493 27.0065 6.6407C27.4148 7.62647 27.625 8.68301 27.625 9.75V13H29.25ZM19.5 4.875C18.2071 4.875 16.9671 5.38861 16.0529 6.30285C15.1386 7.21709 14.625 8.45707 14.625 9.75V13H24.375V9.75C24.375 8.45707 23.8614 7.21709 22.9471 6.30285C22.0329 5.38861 20.7929 4.875 19.5 4.875Z" fill="#248DBC"/>
</svg>
