<svg width="128" height="122" viewBox="0 0 128 122" fill="none" xmlns="http://www.w3.org/2000/svg">
<ellipse cx="64" cy="61" rx="64" ry="61" fill="#BDE5F8" fill-opacity="0.24"/>
<ellipse cx="64.0005" cy="61" rx="59.188" ry="56" fill="#98DCFB" fill-opacity="0.53"/>
<ellipse cx="63.5192" cy="60.5" rx="45.2331" ry="46.5" fill="#98DCFB" fill-opacity="0.35"/>
<path d="M83.93 55.0835V60.5002C83.93 65.5282 81.8302 70.3504 78.0927 73.9057C74.3551 77.4611 69.2859 79.4585 64.0001 79.4585M64.0001 79.4585C58.7144 79.4585 53.6452 77.4611 49.9076 73.9057C46.1701 70.3504 44.0703 65.5282 44.0703 60.5002V55.0835M64.0001 79.4585V90.2918M52.6117 90.2918H75.3886M64.0001 30.7085C61.7348 30.7085 59.5623 31.5645 57.9605 33.0883C56.3587 34.612 55.4588 36.6786 55.4588 38.8335V60.5002C55.4588 62.655 56.3587 64.7217 57.9605 66.2454C59.5623 67.7691 61.7348 68.6252 64.0001 68.6252C66.2654 68.6252 68.438 67.7691 70.0398 66.2454C71.6416 64.7217 72.5415 62.655 72.5415 60.5002V38.8335C72.5415 36.6786 71.6416 34.612 70.0398 33.0883C68.438 31.5645 66.2654 30.7085 64.0001 30.7085Z" stroke="white" stroke-width="4" stroke-linecap="round" stroke-linejoin="round"/>
</svg>
