<svg width="18" height="17" viewBox="0 0 18 17" fill="none" xmlns="http://www.w3.org/2000/svg">
<g clip-path="url(#clip0_970_2712)">
<path d="M9 11.3332C10.95 11.3332 12.5 9.86934 12.5 8.02767V4.24989C12.5 2.40822 10.95 0.944336 9 0.944336C7.05 0.944336 5.5 2.40822 5.5 4.24989V8.02767C5.5 9.86934 7.05 11.3332 9 11.3332ZM6.5 4.24989C6.5 2.92767 7.6 1.88878 9 1.88878C10.4 1.88878 11.5 2.92767 11.5 4.24989V8.02767C11.5 9.34989 10.4 10.3888 9 10.3888C7.6 10.3888 6.5 9.34989 6.5 8.02767V4.24989Z" fill="white"/>
<path d="M15 8.02783H14C14 10.6251 11.75 12.7501 9 12.7501C6.25 12.7501 4 10.6251 4 8.02783H3C3 11.0028 5.4 13.4112 8.5 13.6473V15.1112H7C6.7 15.1112 6.5 15.3001 6.5 15.5834C6.5 15.8667 6.7 16.0556 7 16.0556H11C11.3 16.0556 11.5 15.8667 11.5 15.5834C11.5 15.3001 11.3 15.1112 11 15.1112H9.5V13.6473C12.6 13.4112 15 11.0028 15 8.02783Z" fill="white"/>
</g>
<defs>
<clipPath id="clip0_970_2712">
<rect width="18" height="17" fill="white"/>
</clipPath>
</defs>
</svg>
