<svg width="39" height="39" viewBox="0 0 39 39" fill="none" xmlns="http://www.w3.org/2000/svg">
<path d="M19.5947 32.4999C15.984 32.4999 12.9144 31.2356 10.3859 28.7071C7.85735 26.1786 6.59364 23.1096 6.59473 19.4999C6.59473 16.8241 7.3601 14.3676 8.89085 12.1305C10.4227 9.89127 12.5948 8.28089 15.4071 7.29939C15.7386 7.18348 16.0289 7.15314 16.2781 7.20839C16.5273 7.26364 16.7336 7.37143 16.8972 7.53177C17.0608 7.6921 17.1648 7.89793 17.2092 8.14927C17.2526 8.40168 17.2184 8.66656 17.1069 8.94389C16.8967 9.46064 16.7439 9.9866 16.6486 10.5218C16.5533 11.0569 16.5061 11.6121 16.5072 12.1874C16.5072 15.0831 17.5164 17.5407 19.5346 19.56C21.5539 21.5783 24.0115 22.5874 26.9072 22.5874C27.6634 22.5874 28.3551 22.5072 28.9824 22.3469C29.6107 22.1866 30.1459 22.0566 30.5879 21.9569C30.824 21.9136 31.0401 21.919 31.2362 21.9731C31.4323 22.0273 31.5905 22.1226 31.7107 22.2591C31.8353 22.3946 31.9198 22.5614 31.9642 22.7596C32.0086 22.9579 31.9832 23.1838 31.8879 23.4373C31.1133 26.0914 29.595 28.2651 27.333 29.9584C25.071 31.6516 22.4916 32.4988 19.5947 32.4999Z" fill="#1C6E93"/>
<path d="M25.4167 11.6667C26.3792 11.6667 27.1667 12.4542 27.1667 13.4167C27.1667 14.3792 26.3792 15.1667 25.4167 15.1667C24.4542 15.1667 23.6667 14.3792 23.6667 13.4167C23.6667 12.4542 24.4542 11.6667 25.4167 11.6667ZM25.4167 10.5C23.8067 10.5 22.5 11.8067 22.5 13.4167C22.5 15.0267 23.8067 16.3333 25.4167 16.3333C27.0267 16.3333 28.3333 15.0267 28.3333 13.4167C28.3333 11.8067 27.0267 10.5 25.4167 10.5ZM19.5833 14H20.75C21.0708 14 21.3333 13.7375 21.3333 13.4167C21.3333 13.0958 21.0708 12.8333 20.75 12.8333H19.5833C19.2625 12.8333 19 13.0958 19 13.4167C19 13.7375 19.2625 14 19.5833 14ZM30.0833 14H31.25C31.5708 14 31.8333 13.7375 31.8333 13.4167C31.8333 13.0958 31.5708 12.8333 31.25 12.8333H30.0833C29.7625 12.8333 29.5 13.0958 29.5 13.4167C29.5 13.7375 29.7625 14 30.0833 14ZM24.8333 7.58333V8.75C24.8333 9.07083 25.0958 9.33333 25.4167 9.33333C25.7375 9.33333 26 9.07083 26 8.75V7.58333C26 7.2625 25.7375 7 25.4167 7C25.0958 7 24.8333 7.2625 24.8333 7.58333ZM24.8333 18.0833V19.25C24.8333 19.5708 25.0958 19.8333 25.4167 19.8333C25.7375 19.8333 26 19.5708 26 19.25V18.0833C26 17.7625 25.7375 17.5 25.4167 17.5C25.0958 17.5 24.8333 17.7625 24.8333 18.0833ZM21.9108 9.08833C21.8569 9.03426 21.7928 8.99135 21.7222 8.96208C21.6516 8.93281 21.576 8.91774 21.4996 8.91774C21.4232 8.91774 21.3475 8.93281 21.277 8.96208C21.2064 8.99135 21.1423 9.03426 21.0883 9.08833C21.0343 9.1423 20.9914 9.2064 20.9621 9.27697C20.9328 9.34754 20.9177 9.42318 20.9177 9.49958C20.9177 9.57598 20.9328 9.65163 20.9621 9.7222C20.9914 9.79277 21.0343 9.85687 21.0883 9.91083L21.7067 10.5292C21.9342 10.7567 22.3075 10.7567 22.5292 10.5292C22.7508 10.3017 22.7567 9.92833 22.5292 9.70667L21.9108 9.08833ZM29.1267 16.3042C29.0727 16.2501 29.0086 16.2072 28.938 16.1779C28.8675 16.1486 28.7918 16.1336 28.7154 16.1336C28.639 16.1336 28.5634 16.1486 28.4928 16.1779C28.4222 16.2072 28.3581 16.2501 28.3042 16.3042C28.2501 16.3581 28.2072 16.4222 28.1779 16.4928C28.1486 16.5634 28.1336 16.639 28.1336 16.7154C28.1336 16.7918 28.1486 16.8675 28.1779 16.938C28.2072 17.0086 28.2501 17.0727 28.3042 17.1267L28.9225 17.745C29.15 17.9725 29.5233 17.9725 29.745 17.745C29.7991 17.691 29.842 17.6269 29.8713 17.5564C29.9005 17.4858 29.9156 17.4101 29.9156 17.3337C29.9156 17.2574 29.9005 17.1817 29.8713 17.1111C29.842 17.0406 29.7991 16.9765 29.745 16.9225L29.1267 16.3042ZM29.745 9.91083C29.7991 9.85687 29.842 9.79277 29.8713 9.7222C29.9005 9.65163 29.9156 9.57598 29.9156 9.49958C29.9156 9.42318 29.9005 9.34754 29.8713 9.27697C29.842 9.2064 29.7991 9.1423 29.745 9.08833C29.691 9.03426 29.6269 8.99135 29.5564 8.96208C29.4858 8.93281 29.4101 8.91774 29.3337 8.91774C29.2574 8.91774 29.1817 8.93281 29.1111 8.96208C29.0406 8.99135 28.9765 9.03426 28.9225 9.08833L28.3042 9.70667C28.0767 9.93417 28.0767 10.3075 28.3042 10.5292C28.5317 10.7508 28.905 10.7567 29.1267 10.5292L29.745 9.91083ZM22.5292 17.1267C22.5832 17.0727 22.6261 17.0086 22.6554 16.938C22.6847 16.8675 22.6998 16.7918 22.6998 16.7154C22.6998 16.639 22.6847 16.5634 22.6554 16.4928C22.6261 16.4222 22.5832 16.3581 22.5292 16.3042C22.4752 16.2501 22.4111 16.2072 22.3405 16.1779C22.27 16.1486 22.1943 16.1336 22.1179 16.1336C22.0415 16.1336 21.9659 16.1486 21.8953 16.1779C21.8247 16.2072 21.7606 16.2501 21.7067 16.3042L21.0883 16.9225C20.8608 17.15 20.8608 17.5233 21.0883 17.745C21.3158 17.9667 21.6892 17.9725 21.9108 17.745L22.5292 17.1267Z" fill="#FFB649"/>
</svg>
