<svg width="24" height="24" viewBox="0 0 24 24" fill="none" xmlns="http://www.w3.org/2000/svg">
<path d="M12 24C18.6275 24 24 18.6275 24 12C24 5.3725 18.6275 0 12 0C5.3725 0 0 5.3725 0 12C0 18.6275 5.3725 24 12 24Z" fill="#DEEEFF"/>
<path d="M6.76367 5.85607C6.76367 5.74602 6.78535 5.63705 6.82746 5.53538C6.86957 5.43371 6.9313 5.34133 7.00912 5.26351C7.08693 5.1857 7.17931 5.12397 7.28098 5.08186C7.38265 5.03974 7.49162 5.01807 7.60167 5.01807H13.7457L17.2367 7.95057V18.1441C17.2365 18.3662 17.1482 18.5793 16.991 18.7363C16.8339 18.8933 16.6208 18.9816 16.3987 18.9816H7.60167C7.37951 18.9816 7.16643 18.8933 7.00929 18.7363C6.85215 18.5793 6.7638 18.3662 6.76367 18.1441V5.85607Z" fill="#305986"/>
<path d="M13.7453 5.01807V7.11307C13.7454 7.33523 13.8338 7.54825 13.9909 7.7053C14.1481 7.86235 14.3611 7.95057 14.5833 7.95057H17.2363M10.6263 16.0331H11.4008V10.2641H9.64631V11.3621H8.57031V9.38207H15.4903V11.3621H14.4143V10.2646H12.6063V16.0336H13.4783V16.9161H10.6263V16.0331Z" fill="#6BAFFF"/>
</svg>
